<svg xmlns="http://www.w3.org/2000/svg" xmlns:xlink="http://www.w3.org/1999/xlink" width="500" zoomAndPan="magnify" viewBox="0 0 375 374.999991" height="500" preserveAspectRatio="xMidYMid meet" version="1.0"><defs><g/><clipPath id="5a13b54d0e"><path d="M 187.5 0 C 83.945312 0 0 83.945312 0 187.5 C 0 291.054688 83.945312 375 187.5 375 C 291.054688 375 375 291.054688 375 187.5 C 375 83.945312 291.054688 0 187.5 0 Z M 187.5 0 " clip-rule="nonzero"/></clipPath></defs><g clip-path="url(#5a13b54d0e)"><rect x="-37.5" width="450" fill="#d1c5d7" y="-37.499999" height="449.999989" fill-opacity="1"/></g><g fill="#ffffff" fill-opacity="1"><g transform="translate(37.500002, 257.924983)"><g><path d="M 94.140625 -181.953125 L 109.9375 -176.984375 L 44.25 23.921875 L 28.21875 18.96875 Z M 94.140625 -181.953125 "/></g></g></g><g fill="#ffffff" fill-opacity="1"><g transform="translate(175.658783, 257.924983)"><g><path d="M 100.90625 -18.96875 L 98.203125 -18.96875 C 94.585938 -11.4375 89.582031 -5.863281 83.1875 -2.25 C 76.789062 1.351562 70.054688 3.15625 62.984375 3.15625 C 55.609375 3.15625 48.757812 1.914062 42.4375 -0.5625 C 36.113281 -3.050781 30.582031 -6.738281 25.84375 -11.625 C 21.101562 -16.519531 17.378906 -22.503906 14.671875 -29.578125 C 11.960938 -36.648438 10.609375 -44.851562 10.609375 -54.1875 L 10.609375 -57.796875 C 10.609375 -66.972656 11.960938 -75.097656 14.671875 -82.171875 C 17.378906 -89.242188 21.101562 -95.222656 25.84375 -100.109375 C 30.582031 -105.003906 36.113281 -108.726562 42.4375 -111.28125 C 48.757812 -113.84375 55.457031 -115.125 62.53125 -115.125 C 70.207031 -115.125 77.164062 -113.429688 83.40625 -110.046875 C 89.65625 -106.660156 94.585938 -101.429688 98.203125 -94.359375 L 100.90625 -94.359375 L 100.90625 -111.96875 L 118.515625 -111.96875 L 118.515625 -23.03125 C 118.515625 -18.507812 120.546875 -16.25 124.609375 -16.25 L 130.25 -16.25 L 130.25 0 L 118.296875 0 C 113.179688 0 109.003906 -1.65625 105.765625 -4.96875 C 102.523438 -8.28125 100.90625 -12.492188 100.90625 -17.609375 Z M 64.796875 -13.546875 C 70.054688 -13.546875 74.90625 -14.523438 79.34375 -16.484375 C 83.789062 -18.441406 87.59375 -21.222656 90.75 -24.828125 C 93.914062 -28.441406 96.398438 -32.769531 98.203125 -37.8125 C 100.003906 -42.851562 100.90625 -48.457031 100.90625 -54.625 L 100.90625 -57.34375 C 100.90625 -63.363281 100.003906 -68.894531 98.203125 -73.9375 C 96.398438 -78.976562 93.878906 -83.300781 90.640625 -86.90625 C 87.398438 -90.519531 83.5625 -93.34375 79.125 -95.375 C 74.6875 -97.40625 69.910156 -98.421875 64.796875 -98.421875 C 59.523438 -98.421875 54.707031 -97.441406 50.34375 -95.484375 C 45.976562 -93.535156 42.175781 -90.789062 38.9375 -87.25 C 35.707031 -83.71875 33.1875 -79.429688 31.375 -74.390625 C 29.570312 -69.347656 28.671875 -63.816406 28.671875 -57.796875 L 28.671875 -54.1875 C 28.671875 -41.382812 32.019531 -31.410156 38.71875 -24.265625 C 45.414062 -17.117188 54.109375 -13.546875 64.796875 -13.546875 Z M 64.796875 -13.546875 "/></g></g></g></svg>